<?xml version="1.0" encoding="UTF-8"?>
<svg version="1.1" xmlns="http://www.w3.org/2000/svg" width="1536" height="1024">
<path d="M0 0 C506.88 0 1013.76 0 1536 0 C1536 337.92 1536 675.84 1536 1024 C1029.12 1024 522.24 1024 0 1024 C0 686.08 0 348.16 0 0 Z " fill="none" transform="translate(0,0)"/>
<path d="M0 0 C0.99833862 -0.00145523 1.99667725 -0.00291046 3.02526855 -0.00440979 C5.11257886 -0.00276381 7.19990297 0.00864952 9.28710938 0.02954102 C12.48879854 0.05877682 15.68885656 0.05006705 18.890625 0.03710938 C20.92709139 0.04333958 22.96355259 0.05172487 25 0.0625 C25.95620239 0.05956436 26.91240479 0.05662872 27.89758301 0.05360413 C28.7828064 0.0662883 29.66802979 0.07897247 30.58007812 0.09204102 C31.74609558 0.10014549 31.74609558 0.10014549 32.93566895 0.1084137 C35.52995294 0.60310728 36.3422446 1.44666372 37.96875 3.49609375 C39.34840542 6.04293199 40.64996997 8.57771003 41.90625 11.18359375 C42.24076172 11.86615234 42.57527344 12.54871094 42.91992188 13.25195312 C43.59549323 14.63043109 44.26786213 16.01048317 44.93701172 17.39208984 C46.32879325 20.23032299 47.77971196 23.03769328 49.23657227 25.84301758 C49.96875 27.49609375 49.96875 27.49609375 49.96875 29.49609375 C50.62875 29.49609375 51.28875 29.49609375 51.96875 29.49609375 C52.3709375 30.51703125 52.3709375 30.51703125 52.78125 31.55859375 C55.64635459 38.64595775 58.86435668 45.45101824 62.37695312 52.23828125 C64.96875 57.29253389 64.96875 57.29253389 64.96875 59.49609375 C65.62875 59.49609375 66.28875 59.49609375 66.96875 59.49609375 C68.57974198 62.65933185 70.18126423 65.82727631 71.78125 68.99609375 C72.23306641 69.88296875 72.68488281 70.76984375 73.15039062 71.68359375 C75.13345975 75.62078209 77.03187049 79.48494776 78.48046875 83.65234375 C79.47862727 86.46164857 80.70187826 88.79302965 82.33203125 91.2890625 C85.53166117 96.1978709 87.79078664 101.46111161 90.15625 106.80859375 C93.81040587 114.92048854 97.62980908 122.8669261 101.84204102 130.70166016 C106.08075979 138.61866045 110.08850951 146.64679545 114.09375 154.68359375 C114.59145401 155.68193237 114.59145401 155.68193237 115.09921265 156.70043945 C116.70020399 159.91263501 118.29978344 163.12553057 119.89851379 166.33885193 C121.79785275 170.15456197 123.70249925 173.96759299 125.609375 177.77954102 C126.3151174 179.19069773 127.0208566 180.60185604 127.72659302 182.01301575 C128.09324192 182.74609262 128.45989082 183.4791695 128.8376503 184.23446083 C130.76170569 188.08160799 132.68526659 191.92900238 134.60888672 195.77636719 C135.43089572 197.42039097 136.25290708 199.06441357 137.07492065 200.70843506 C149.03953044 224.63765462 161.00414022 248.56687419 172.96875 272.49609375 C163.29365347 272.58887167 153.61871063 272.6598981 143.94326591 272.70334244 C139.45029841 272.72419612 134.9576358 272.75247292 130.46484375 272.79785156 C126.12708677 272.84138893 121.78962262 272.86524755 117.45166397 272.87560272 C115.79867062 272.88297998 114.14569287 272.89738622 112.49282455 272.91901398 C110.17308979 272.94815395 107.85455701 272.95204549 105.53466797 272.95019531 C104.21562469 272.95907776 102.89658142 272.96796021 101.53756714 272.97711182 C95.67504349 272.1869397 91.79025243 268.92878968 88.18847656 264.33544922 C85.62848987 260.47497288 83.77402019 256.25816876 81.84375 252.05859375 C80.8778044 249.99860401 79.91165252 247.93871099 78.9453125 245.87890625 C78.45450195 244.82477539 77.96369141 243.77064453 77.45800781 242.68457031 C75.07649854 237.58579801 72.64716154 232.51014632 70.21875 227.43359375 C69.76387207 226.47606201 69.30899414 225.51853027 68.84033203 224.53198242 C66.85192078 220.35849191 64.8433786 216.20707204 62.6875 212.1171875 C62.35073242 211.47338135 62.01396484 210.8295752 61.66699219 210.16625977 C60.79576853 208.5169015 59.90654521 206.87708402 59.015625 205.23828125 C57.79795777 202.04872006 57.79293216 200.67710093 58.96875 197.49609375 C60.359375 195.63671875 60.359375 195.63671875 62.21875 193.74609375 C66.32729671 189.28517169 70.19538024 184.67861137 73.96875 179.93359375 C74.55688477 179.22557617 75.14501953 178.51755859 75.75097656 177.78808594 C78.48367702 174.3073188 80.34548901 171.69451865 80.484375 167.1796875 C79.7729824 162.0975419 78.61155531 160.973317 74.96875 157.49609375 C71.38638707 155.1116026 67.74866399 155.15294785 63.578125 155.08203125 C62.87351135 155.0626651 62.16889771 155.04329895 61.44293213 155.02334595 C59.20165961 154.9637664 56.96033511 154.91725252 54.71875 154.87109375 C53.19529062 154.83289396 51.67185238 154.79384106 50.1484375 154.75390625 C46.42206894 154.65808357 42.69554165 154.57397268 38.96875 154.49609375 C38.65647461 153.78066406 38.34419922 153.06523437 38.02246094 152.328125 C36.59006139 149.04982788 35.1544316 145.7729548 33.71875 142.49609375 C33.22761719 141.37074219 32.73648438 140.24539063 32.23046875 139.0859375 C29.88334745 133.73450094 27.50372572 128.4274139 24.84521484 123.22314453 C23.45993366 120.49348461 22.18910084 117.71255707 20.90625 114.93359375 C17.7259435 108.07684574 14.47976938 101.2522846 11.21875 94.43359375 C10.74687256 93.44609131 10.27499512 92.45858887 9.78881836 91.44116211 C7.55381114 86.77275534 5.30526312 82.11460135 2.96875 77.49609375 C-1.44463928 86.21192119 -5.74436412 94.96969662 -9.90625 103.80859375 C-13.97425933 112.4277377 -18.31499219 120.87129552 -22.796875 129.28125 C-24.59680167 132.66023048 -26.33613805 136.06301591 -28.03125 139.49609375 C-32.23177907 147.89715188 -36.65664813 156.18435021 -41.03125 164.49609375 C-6.05125 164.49609375 28.92875 164.49609375 64.96875 164.49609375 C63.90696842 168.74322009 62.82026874 170.17402001 60.03125 173.43359375 C56.67515787 177.42818768 53.43379306 181.46119835 50.28125 185.62109375 C49.07742172 187.14634422 49.07742172 187.14634422 47.84927368 188.70240784 C45.80411986 191.32783661 43.96536381 194.02147217 42.16610718 196.82017517 C33.6974265 209.31195822 33.6974265 209.31195822 26.050354 211.02761841 C20.30638761 211.76054867 14.59368903 211.56972518 8.8203125 211.375 C6.71041797 211.36571127 4.60047812 211.36396316 2.49057007 211.36936951 C-3.0193765 211.36351859 -8.52270169 211.25641503 -14.03094482 211.12695312 C-19.66866303 211.01277356 -25.30661902 210.99604317 -30.9453125 210.97070312 C-41.97631178 210.90697016 -53.0027742 210.7360807 -64.03125 210.49609375 C-64.36858154 211.17337524 -64.70591309 211.85065674 -65.0534668 212.54846191 C-66.607469 215.66696814 -68.16309942 218.7846595 -69.71875 221.90234375 C-70.24919922 222.96743164 -70.77964844 224.03251953 -71.32617188 225.12988281 C-75.44255412 233.37527423 -79.70121298 241.53382623 -84.06713867 249.64916992 C-85.09872283 251.62534975 -86.05639629 253.63030738 -87.01953125 255.640625 C-91.2301857 264.09269854 -98.16195039 271.07934912 -107.03125 274.49609375 C-112.72825069 276.14273115 -117.73945941 276.77931325 -123.65039062 276.72314453 C-124.47085876 276.72343658 -125.2913269 276.72372864 -126.13665771 276.72402954 C-128.82038335 276.72264783 -131.50382349 276.70714181 -134.1875 276.69140625 C-136.05936532 276.68767199 -137.93123261 276.68482697 -139.80310059 276.68283081 C-144.7087146 276.67522686 -149.61420853 276.65560642 -154.51977539 276.63342285 C-159.53400041 276.61289441 -164.54824499 276.60381417 -169.5625 276.59375 C-179.38546917 276.57235727 -189.20834956 276.53826074 -199.03125 276.49609375 C-196.55615687 274.02100062 -194.4649756 273.50574066 -191.15625 272.37109375 C-170.4656147 264.57495382 -160.59831632 249.54987539 -150.65625 230.80859375 C-149.76993896 229.14993286 -149.76993896 229.14993286 -148.86572266 227.45776367 C-147.25659654 224.44352341 -145.65160051 221.42715706 -144.04858398 218.40966797 C-142.65112574 215.78109161 -141.24997951 213.15448755 -139.84902954 210.527771 C-132.06381356 195.92838031 -124.33772233 181.29991533 -116.703125 166.62109375 C-112.85349759 159.22442974 -108.94495553 151.85899936 -105.03125 144.49609375 C-104.37125 144.49609375 -103.71125 144.49609375 -103.03125 144.49609375 C-102.91821533 143.77800537 -102.80518066 143.05991699 -102.6887207 142.32006836 C-101.99066522 139.32177359 -100.94197225 137.03438664 -99.51171875 134.3125 C-98.9902124 133.31395996 -98.46870605 132.31541992 -97.93139648 131.28662109 C-97.08363647 129.68874756 -97.08363647 129.68874756 -96.21875 128.05859375 C-95.63488525 126.94693848 -95.05102051 125.8352832 -94.44946289 124.68994141 C-90.2064744 116.63920147 -85.86648542 108.64321023 -81.4831543 100.66821289 C-77.91090662 94.15535614 -74.44880351 87.59129451 -71.03125 80.99609375 C-67.14026257 73.48725937 -63.16819307 66.03197261 -59.09375 58.62109375 C-52.53326332 46.68677737 -46.27040522 34.60078389 -40.03125 22.49609375 C-39.37125 22.49609375 -38.71125 22.49609375 -38.03125 22.49609375 C-37.79019531 21.93921875 -37.54914063 21.38234375 -37.30078125 20.80859375 C-35.7586379 17.99952033 -33.87109947 15.86910426 -31.71875 13.49609375 C-30.95949219 12.65046875 -30.20023438 11.80484375 -29.41796875 10.93359375 C-21.06973751 2.40774057 -11.7342888 -0.14023569 0 0 Z " fill="#8FCF2D" transform="translate(639.03125,354.50390625)"/>
<path d="M0 0 C1.19625 0.165 2.3925 0.33 3.625 0.5 C8.78267194 2.79229864 11.94385659 6.29769036 15 11 C16.2476877 14.33230171 16.74277326 17.46170332 17 21 C17.06832031 21.72574219 17.13664062 22.45148438 17.20703125 23.19921875 C17.55158713 29.89891649 14.91924387 34.03512929 10.9375 39.125 C5.97924015 44.57386662 -0.17404642 47.08581181 -7.5 47.5 C-12.70121392 47.20593844 -17.62313814 45.83759851 -22 43 C-22.40206161 42.38072632 -22.80412323 41.76145264 -23.21836853 41.12341309 C-25.78456514 37.27035606 -27.72935325 35.28494616 -32.33300781 34.25256348 C-36.57284007 33.97710618 -40.75063727 33.94251826 -44.99609375 34 C-46.55552693 33.99247429 -48.11494675 33.98143398 -49.67433167 33.96704102 C-53.76009696 33.93870136 -57.84428829 33.95783302 -61.92999268 33.98712158 C-66.10642586 34.00857151 -70.28257983 33.9847576 -74.45898438 33.96484375 C-82.63972144 33.9324618 -90.8193518 33.95026758 -99 34 C-99.28085449 34.73822998 -99.56170898 35.47645996 -99.85107422 36.23706055 C-100.88023678 38.71199312 -102.014273 40.90858671 -103.3828125 43.20703125 C-103.82753906 43.95791016 -104.27226563 44.70878906 -104.73046875 45.48242188 C-105.42076172 46.63581055 -105.42076172 46.63581055 -106.125 47.8125 C-106.59292969 48.60076172 -107.06085938 49.38902344 -107.54296875 50.20117188 C-108.69215397 52.13602454 -109.84457003 54.06887228 -111 56 C-109.8869902 55.96669083 -109.8869902 55.96669083 -108.75149536 55.93270874 C-101.72064695 55.73141257 -94.69081397 55.5796357 -87.6578846 55.48187828 C-84.04279727 55.42992372 -80.43011132 55.35960895 -76.81640625 55.24560547 C-73.32132722 55.13604847 -69.82853966 55.07698081 -66.33187485 55.05122757 C-64.36493924 55.02405403 -62.39891288 54.94612412 -60.43338013 54.86703491 C-53.28822906 54.86261315 -49.51456657 55.67473229 -44.34326172 60.78759766 C-42.85991641 62.4947799 -41.40947198 64.23133575 -40 66 C-38.73277408 67.4614691 -37.46264886 68.9204386 -36.1875 70.375 C-35.63449219 71.02210938 -35.08148437 71.66921875 -34.51171875 72.3359375 C-32.93379588 74.16088008 -32.93379588 74.16088008 -30.5 76 C-28.32314282 77.74148574 -26.7403458 79.36632585 -24.94140625 81.46875 C-20.51989531 86.55872252 -16.05105374 91.58268788 -11.4375 96.5 C-10.63248047 97.4178125 -9.82746094 98.335625 -8.99804688 99.28125 C-5.29065847 103.17096898 -2.69872476 105.68574211 2.68725586 106.68212891 C6.26761486 106.75319962 9.48887151 106.70655032 13 106 C15.60845604 103.46255794 15.60845604 103.46255794 17 100 C21.7779583 95.1189203 26.18232944 91.72608471 33.1875 91.625 C41.52496774 91.79174935 48.21537768 95.08085158 54 101 C58.33813538 106.55443502 58.80208758 112.63182412 58.55859375 119.5234375 C57.62604628 125.32740428 55.30141375 129.04617524 51 133 C45.36507544 136.88669312 39.22554344 140.07483922 32.22265625 139.515625 C25.13968782 137.87247591 19.68094316 134.39580708 15.05859375 128.84375 C13.77185302 126.602637 13.38712007 124.54020358 13 122 C12.45287354 122.08902588 11.90574707 122.17805176 11.34204102 122.26977539 C4.04503485 123.29304774 -3.99327644 124.41876304 -10.55029297 120.46044922 C-16.04495825 115.93165626 -20.53290632 110.51445796 -25 105 C-30.24121998 98.76709541 -35.88623672 93.02361156 -41.6875 87.3125 C-43.36045904 85.66518018 -45.03111173 84.01551414 -46.69921875 82.36328125 C-47.42971436 81.64438721 -48.16020996 80.92549316 -48.9128418 80.18481445 C-51 78 -51 78 -52.71766663 75.40466309 C-54.81408245 72.74054894 -54.81408245 72.74054894 -58.02459717 72.36076355 C-59.7966452 72.3507708 -59.7966452 72.3507708 -61.60449219 72.34057617 C-62.25856552 72.33009247 -62.91263885 72.31960876 -63.58653259 72.30880737 C-65.74046465 72.2800908 -67.89278609 72.28634368 -70.046875 72.29296875 C-71.54333507 72.27985141 -73.03977745 72.26454706 -74.53619385 72.24714661 C-78.46866184 72.20728674 -82.40066681 72.19710564 -86.33331299 72.19311523 C-90.34865372 72.18378549 -94.36372218 72.14637307 -98.37890625 72.11132812 C-106.25260915 72.04674246 -114.1260446 72.01351059 -122 72 C-122.14321182 72.61800476 -122.28642365 73.23600952 -122.43397522 73.8727417 C-123.07855134 76.29521499 -124.07161823 78.06122255 -125.37109375 80.203125 C-125.85771484 81.01007813 -126.34433594 81.81703125 -126.84570312 82.6484375 C-127.63364258 83.93621094 -127.63364258 83.93621094 -128.4375 85.25 C-128.97955078 86.14460938 -129.52160156 87.03921875 -130.08007812 87.9609375 C-133.73702007 93.98010103 -137.45505955 99.95975925 -141.20874023 105.91894531 C-144.54803748 111.2347509 -147.78212484 116.60999531 -151 122 C-154.59214006 128.01383309 -158.21325206 134.00446616 -161.9375 139.9375 C-162.53630981 140.89148682 -162.53630981 140.89148682 -163.1472168 141.86474609 C-163.98244971 143.19458345 -164.81782123 144.52433376 -165.65332031 145.85400391 C-173.43005698 158.24659189 -181.05989172 170.71278756 -188.47363281 183.32617188 C-191.8858986 189.12889288 -195.35991609 194.88214811 -198.91015625 200.6015625 C-201.64324745 205.04602857 -204.32090989 209.52283782 -207 214 C-211.61184959 221.70150148 -216.25414953 229.38004613 -221 237 C-221.639375 238.03253906 -222.27875 239.06507813 -222.9375 240.12890625 C-223.865625 241.61197266 -223.865625 241.61197266 -224.8125 243.125 C-225.62654297 244.42824219 -225.62654297 244.42824219 -226.45703125 245.7578125 C-227.83403528 247.75882596 -229.21724591 249.36179354 -231 251 C-231 250.34 -231 249.68 -231 249 C-231.66 249 -232.32 249 -233 249 C-233.27980713 248.26531494 -233.55961426 247.53062988 -233.84790039 246.77368164 C-234.89671528 244.24865813 -236.06142434 241.9813508 -237.43359375 239.62109375 C-237.91199707 238.79254883 -238.39040039 237.96400391 -238.88330078 237.11035156 C-239.39618652 236.22831055 -239.90907227 235.34626953 -240.4375 234.4375 C-244.58376221 227.25198126 -248.65566838 220.03472299 -252.625 212.75 C-257.21380386 204.34381457 -262.01209665 196.07834404 -266.90966797 187.84912109 C-268.63834854 184.91740891 -270.31928785 181.95943164 -272 179 C-272.45890625 179.94101562 -272.9178125 180.88203125 -273.390625 181.8515625 C-274.01019772 183.10948286 -274.63000177 184.36728931 -275.25 185.625 C-275.55035156 186.24246094 -275.85070312 186.85992188 -276.16015625 187.49609375 C-278.17042788 191.55940875 -280.41131701 195.2773364 -283 199 C-286.30007378 195.92004823 -288.1402247 192.28384314 -290.1875 188.3125 C-290.58549805 187.54993896 -290.98349609 186.78737793 -291.39355469 186.00170898 C-294.9360562 179.18795955 -298.37727537 172.32471084 -301.78808594 165.44433594 C-309.67794189 149.53111317 -317.64091113 133.6724143 -326 118 C-331.82507659 107.07373039 -337.50474865 96.09584297 -343 85 C-351.23951088 68.375269 -359.62297358 51.85964123 -368.80126953 35.73022461 C-373.33569097 27.71521297 -377.57775817 19.55560456 -381 11 C-353.28 11 -325.56 11 -297 11 C-297 11.66 -297 12.32 -297 13 C-296.401875 13.226875 -295.80375 13.45375 -295.1875 13.6875 C-291.52664561 15.88401264 -290.30452103 19.36558119 -288.5 23.125 C-287.23040807 25.91909895 -287.23040807 25.91909895 -285.56225586 27.41113281 C-283.76717502 29.2367909 -282.72103273 31.04553725 -281.50390625 33.296875 C-281.03388184 34.16143311 -280.56385742 35.02599121 -280.07958984 35.91674805 C-279.32863037 37.31920776 -279.32863037 37.31920776 -278.5625 38.75 C-278.0360791 39.72428955 -277.5096582 40.6985791 -276.96728516 41.70239258 C-271.6740652 51.53299529 -266.52087009 61.43640137 -261.37890625 71.34667969 C-257.61890999 78.58174331 -253.80728712 85.78974958 -250 93 C-249.29230963 94.34097881 -248.58462801 95.68196224 -247.87695312 97.02294922 C-245.86912536 100.82707809 -243.85970004 104.63036021 -241.84942627 108.43319702 C-241.04008659 109.96459227 -240.23112001 111.49618476 -239.42254639 113.02798462 C-238.27502873 115.20155476 -237.12597175 117.37430468 -235.9765625 119.546875 C-235.63522278 120.19414047 -235.29388306 120.84140594 -234.94219971 121.50828552 C-233.28031237 124.64583355 -231.57019008 127.72864382 -229.75146484 130.77832031 C-228 134 -228 134 -228 137 C-227.34 137 -226.68 137 -226 137 C-225.67128906 136.04480469 -225.67128906 136.04480469 -225.3359375 135.0703125 C-223.46707545 130.7752085 -221.05350959 126.87435567 -218.625 122.875 C-218.09261719 121.99263672 -217.56023437 121.11027344 -217.01171875 120.20117188 C-212.93191963 113.46710345 -208.74239694 106.80658557 -204.51342773 100.16552734 C-200.27225341 93.48527924 -196.19920386 86.71137104 -192.14624023 79.91577148 C-189.16149282 74.91726596 -186.11557294 69.97165704 -182.9609375 65.078125 C-180.16064779 60.68245111 -177.42779313 56.24574293 -174.6875 51.8125 C-173.84227783 50.45112915 -173.84227783 50.45112915 -172.97998047 49.06225586 C-170.35919999 44.83804588 -167.75592513 40.60706071 -165.21875 36.33203125 C-155.30912215 19.76970738 -155.30912215 19.76970738 -147 17 C-145.38849361 16.9103558 -143.77349702 16.87803029 -142.15950012 16.87974548 C-141.16250595 16.87837082 -140.16551178 16.87699615 -139.13830566 16.87557983 C-138.04570435 16.87917511 -136.95310303 16.88277039 -135.82739258 16.88647461 C-134.67603317 16.88632858 -133.52467377 16.88618256 -132.33842468 16.8860321 C-128.52377453 16.88673009 -124.7091729 16.89451721 -120.89453125 16.90234375 C-118.25323005 16.90420833 -115.6119285 16.90563205 -112.97062683 16.90663147 C-106.72334171 16.90974052 -100.47607408 16.91794818 -94.22879666 16.92798096 C-87.11641019 16.9391553 -80.00402288 16.94465588 -72.89162982 16.94967639 C-58.26107752 16.96013114 -43.63053901 16.97772236 -29 17 C-28.86062012 15.72552002 -28.72124023 14.45104004 -28.57763672 13.13793945 C-28.07322957 8.52567548 -26.65458235 6.55442738 -23.21484375 3.48046875 C-16.05550511 -1.30505038 -8.21044308 -1.53769467 0 0 Z " fill="#A7E54A" transform="translate(1081,342)"/>
<path d="M0 0 C7.18993376 -0.02534095 14.37985601 -0.04286308 21.56982422 -0.05493164 C24.01611766 -0.05996249 26.46240809 -0.06678784 28.90869141 -0.07543945 C32.42351016 -0.08755952 35.93828918 -0.09324079 39.453125 -0.09765625 C41.0955014 -0.10539818 41.0955014 -0.10539818 42.77105713 -0.11329651 C44.30219147 -0.11340981 44.30219147 -0.11340981 45.86425781 -0.11352539 C47.20994843 -0.11685631 47.20994843 -0.11685631 48.58282471 -0.12025452 C51 0 51 0 55 1 C55 54.79 55 108.58 55 164 C31.57 164 8.14 164 -16 164 C-16.28212124 130.08723576 -16.28212124 130.08723576 -16.34179688 115.83789062 C-16.38327643 106.01251548 -16.43194546 96.18756162 -16.52807617 86.36254883 C-16.5980656 79.2058586 -16.64305905 72.04951128 -16.65861946 64.8924883 C-16.66770901 61.10618411 -16.68891734 57.32086048 -16.7401104 53.53487206 C-16.78800824 49.96328099 -16.80220552 46.39306402 -16.79175377 42.82118225 C-16.79456554 40.90154889 -16.83203557 38.98206156 -16.87094116 37.06282043 C-16.79773371 28.17794062 -14.31573271 23.01366328 -9 16 C-8.18479457 14.73919692 -7.38302932 13.46948827 -6.6015625 12.1875 C-5.27018329 10.04045369 -3.93680916 7.89464329 -2.6015625 5.75 C-0.90248433 3.04773841 -0.90248433 3.04773841 0 0 Z " fill="#5F8F1E" transform="translate(946,464)"/>
<path d="M0 0 C1.52833214 0.0320327 1.52833214 0.0320327 3.08753967 0.06471252 C4.15005447 0.05847366 5.21256927 0.0522348 6.30728149 0.04580688 C8.54898475 0.0440684 10.79080348 0.06477289 13.03211975 0.10646057 C16.45410466 0.16216787 19.86673528 0.12734581 23.28871155 0.08229065 C25.47168475 0.0918343 27.6546426 0.10663407 29.83753967 0.12721252 C30.85440353 0.11415573 31.8712674 0.10109894 32.91894531 0.08764648 C39.85980919 0.29306548 39.85980919 0.29306548 42.99298096 2.79020691 C44.79109735 4.86069974 46.39720917 7.02170995 48.02894592 9.22486877 C49.30919196 10.59182933 50.61536781 11.93490801 51.94471741 13.25416565 C52.62489426 13.93426697 53.30507111 14.61436829 54.00585938 15.31507874 C54.71343887 16.01749695 55.42101837 16.71991516 56.15003967 17.44361877 C56.89480057 18.18696472 57.63956146 18.93031067 58.40689087 19.69618225 C60.75771338 22.04146179 63.11201023 24.38321713 65.46644592 26.72486877 C67.07279791 28.32619838 68.67891989 29.92775876 70.2848053 31.52955627 C74.19686577 35.4306635 78.11177545 39.32889297 82.02894592 43.22486877 C83.13649231 42.90252258 84.2440387 42.58017639 85.38514709 42.24806213 C93.0551866 40.09428421 98.63246029 40.75603887 105.65785217 44.59205627 C110.320664 47.8030206 114.22463037 51.81192212 116.02894592 57.22486877 C117.02138454 64.95171227 115.39121006 70.79566796 111.02894592 77.22486877 C107.09107737 81.62662237 102.60831158 83.93210923 96.75941467 84.59596252 C89.17393265 84.73813804 83.74666248 84.50942498 78.02894592 79.22486877 C75.45458685 76.44727082 73.39174587 73.75963114 72.02894592 70.22486877 C72.13640124 67.97396266 72.26397932 65.72398735 72.40394592 63.47486877 C72.38611965 56.92695293 70.10349161 53.46523133 65.58216858 48.84693909 C62.7936724 46.21033813 59.94282709 43.65307971 57.06336975 41.11647034 C54.40059677 38.6406315 52.08347297 35.93940393 49.7301178 33.17286682 C46.47553023 29.44606513 42.8684238 26.06261854 39.3082428 22.63111877 C37.8461347 21.19787924 36.43276901 19.71524336 35.02894592 18.22486877 C35.02894592 17.56486877 35.02894592 16.90486877 35.02894592 16.22486877 C30.38363913 16.29371349 25.73923533 16.38166182 21.09461975 16.48731995 C19.51464349 16.52057065 17.93454841 16.54860224 16.35438538 16.57130432 C14.08263013 16.60484893 11.81196389 16.65716105 9.54066467 16.71315002 C8.83431381 16.71953995 8.12796295 16.72592987 7.40020752 16.73251343 C3.52356142 16.78298444 3.52356142 16.78298444 0.3238678 18.73854065 C-0.10345642 19.22902893 -0.53078064 19.71951721 -0.97105408 20.22486877 C-2.963974 20.56544495 -2.963974 20.56544495 -5.20152283 20.51783752 C-6.00396423 20.50816956 -6.80640564 20.49850159 -7.63316345 20.48854065 C-8.88323181 20.45083557 -8.88323181 20.45083557 -10.15855408 20.41236877 C-11.42602478 20.39206604 -11.42602478 20.39206604 -12.71910095 20.37135315 C-14.80335792 20.33602676 -16.88728684 20.28222017 -18.97105408 20.22486877 C-18.27124696 18.74164926 -17.5605595 17.26356393 -16.84605408 15.78736877 C-16.25437439 14.55180237 -16.25437439 14.55180237 -15.65074158 13.29127502 C-15.0964447 12.27936096 -14.54214783 11.2674469 -13.97105408 10.22486877 C-13.61209549 9.48982117 -13.2531369 8.75477356 -12.88330078 7.99745178 C-9.49382319 1.88410646 -6.97665797 0.1831012 0 0 Z " fill="#9AD93A" transform="translate(972.9710540771484,431.77513122558594)"/>
<path d="M0 0 C0 0.66 0 1.32 0 2 C1.175625 2.4021875 1.175625 2.4021875 2.375 2.8125 C5 4 5 4 7 7 C7.69094876 11.49116693 7.24319396 14.29125813 4.625 17.9375 C1.93157239 20.75219567 -0.121512 21.58792158 -4 21.875 C-7.878488 21.58792158 -9.93157239 20.75219567 -12.625 17.9375 C-14.52483142 15.25283793 -15.04539816 13.76475496 -15.6875 10.4375 C-14.78113488 5.90567439 -13.24804664 4.24804664 -10 1 C-6.78548731 -0.60725635 -3.56387464 -0.05748185 0 0 Z " fill="#F7FFE2" transform="translate(1078,354)"/>
<path d="M0 0 C4.76929365 1.01474333 7.23173905 2.56635858 9.9375 6.625 C10.40547583 10.83678243 10.40315795 12.91099114 8.0625 16.5 C5.33705109 19.22544891 4.50249391 19.57169869 0.625 19.9375 C-3.75683524 19.56615803 -5.22206566 18.96668746 -8.0625 15.625 C-9.32830957 11.56108505 -9.96213731 9.35582395 -7.984375 5.55078125 C-5.53898172 2.37820523 -3.98492329 0.81324965 0 0 Z " fill="#FBFFE9" transform="translate(1115.0625,447.375)"/>
<path d="M0 0 C2.4375 1.5625 2.4375 1.5625 4 4 C4.55363882 6.77960935 4.58151903 9.22353169 4 12 C1.42749516 15.34425629 -0.62748893 16.81699852 -4.8125 17.375 C-8 17 -8 17 -10.875 14.9375 C-13 12 -13 12 -13.5625 8.5 C-12.91877781 4.49461748 -11.84054174 2.84054174 -9 0 C-5.81452856 -1.59273572 -3.39809153 -0.76164121 0 0 Z " fill="#FAFFEC" transform="translate(1071,487)"/>
<path d="M0 0 C0.66 0.33 1.32 0.66 2 1 C0.03617993 2.50559539 -1.78263366 3.89131683 -4 5 C18.77 5.33 41.54 5.66 65 6 C65 6.66 65 7.32 65 8 C37.94 8 10.88 8 -17 8 C-14.41879025 5.41879025 -11.9172628 4.70385292 -8.5 3.4375 C-4.18461645 1.86937955 -4.18461645 1.86937955 0 0 Z " fill="#557F1B" transform="translate(457,623)"/>
<path d="M0 0 C0.50295593 0.16076523 1.00591187 0.32153046 1.52410889 0.48716736 C4.88282943 1.18286093 8.19895419 1.17782954 11.61425781 1.20532227 C12.75630173 1.22017166 12.75630173 1.22017166 13.92141724 1.23532104 C16.43195512 1.26684776 18.94251191 1.29165847 21.453125 1.31640625 C23.19619227 1.33698341 24.93925464 1.35798008 26.68231201 1.37937927 C31.26566592 1.43452129 35.84906428 1.48396523 40.43249512 1.53222656 C45.11128689 1.5824991 49.79001428 1.63815512 54.46875 1.69335938 C63.6457783 1.80084467 72.82286256 1.90231097 82 2 C82 2.33 82 2.66 82 3 C54.61 3 27.22 3 -1 3 C-0.67 2.01 -0.34 1.02 0 0 Z " fill="#E8F4B1" transform="translate(438,629)"/>
<path d="M0 0 C16.83 0 33.66 0 51 0 C51.495 0.99 51.495 0.99 52 2 C51.39722733 1.98667633 50.79445465 1.97335266 50.17341614 1.95962524 C43.89569452 1.82681073 37.6183723 1.73635903 31.33959961 1.67041016 C28.99698678 1.64024985 26.65448675 1.59931483 24.31225586 1.54736328 C20.94356459 1.47451899 17.57636677 1.44053521 14.20703125 1.4140625 C13.16102249 1.38309479 12.11501373 1.35212708 11.03730774 1.32022095 C5.77712795 1.18369076 5.77712795 1.18369076 1.19564819 3.37567139 C-0.38453197 5.16985754 -0.38453197 5.16985754 -2 8 C-2 5 -2 5 0 0 Z " fill="#ABDF4F" transform="translate(946,464)"/>
<path d="M0 0 C16.17 0 32.34 0 49 0 C49 0.33 49 0.66 49 1 C48.1300943 1.00879936 48.1300943 1.00879936 47.24261475 1.01777649 C41.20780788 1.08169921 35.17353485 1.16611584 29.13916016 1.26245117 C26.8869531 1.29571024 24.63466249 1.32373908 22.38232422 1.34643555 C19.14514554 1.37996296 15.9087332 1.43227888 12.671875 1.48828125 C11.66445251 1.49467117 10.65703003 1.5010611 9.61907959 1.50764465 C8.67840637 1.52743881 7.73773315 1.54723297 6.76855469 1.56762695 C5.52945343 1.58428154 5.52945343 1.58428154 4.26531982 1.60127258 C1.51282859 2.08574886 0.09056207 3.1907098 -2 5 C-1.34 3.35 -0.68 1.7 0 0 Z " fill="#B4EB5F" transform="translate(965,433)"/>
<path d="M0 0 C0.66 0.33 1.32 0.66 2 1 C0.03617993 2.50559539 -1.78263366 3.89131683 -4 5 C-3.01 5.66 -2.02 6.32 -1 7 C-4.63 7 -8.26 7 -12 7 C-12 6.34 -12 5.68 -12 5 C-10.04578965 4.13644222 -8.08648653 3.28440066 -6.125 2.4375 C-5.03445313 1.96183594 -3.94390625 1.48617187 -2.8203125 0.99609375 C-1.88960938 0.66738281 -0.95890625 0.33867188 0 0 Z " fill="#587F1F" transform="translate(457,623)"/>
<path d="M0 0 C3.70474412 4.10168099 6.38446682 8.70739435 8 14 C7.67 14.99 7.34 15.98 7 17 C5.82592979 14.73272667 4.66060261 12.46165376 3.5 10.1875 C3.16613281 9.54490234 2.83226562 8.90230469 2.48828125 8.24023438 C0.99760916 5.30452301 0 3.33873483 0 0 Z " fill="#6EA92A" transform="translate(715,591)"/>
<path d="M0 0 C0.99 0.33 1.98 0.66 3 1 C2.57847656 1.44730469 2.15695312 1.89460938 1.72265625 2.35546875 C-2.5377979 6.98399766 -2.5377979 6.98399766 -4 13 C-4.33 13 -4.66 13 -5 13 C-5.602537 6.97463002 -5.602537 6.97463002 -3.88671875 4.19921875 C-2.65378147 2.74400545 -1.33191067 1.36520843 0 0 Z " fill="#F1FFD0" transform="translate(1068,355)"/>
<path d="M0 0 C0.7734375 0.2165625 0.7734375 0.2165625 1.5625 0.4375 C4.68509571 1.15809901 7.82550692 1.57266439 11 2 C11 2.33 11 2.66 11 3 C7.04 3 3.08 3 -1 3 C-0.67 2.01 -0.34 1.02 0 0 Z " fill="#ECF8BD" transform="translate(438,629)"/>
<path d="M0 0 C1.65 0 3.3 0 5 0 C4.04578192 1.14926266 3.08647955 2.29430541 2.125 3.4375 C1.59132813 4.07558594 1.05765625 4.71367187 0.5078125 5.37109375 C-1 7 -1 7 -3 8 C-2.690625 7.236875 -2.38125 6.47375 -2.0625 5.6875 C-1.32106407 3.81210323 -0.63771783 1.91315348 0 0 Z " fill="#B8EB67" transform="translate(946,464)"/>
</svg>
