<svg xmlns="http://www.w3.org/2000/svg" width="1536" height="1024"><path fill="none" d="M0 0h1536v1024H0z"/><path fill="#8FCF2D" d="m639.031 354.504 3.026-.005q3.13.004 6.261.034c3.202.03 6.402.021 9.604.008q3.054.01 6.11.025l2.897-.008 2.682.038 2.356.016c2.594.495 3.406 1.339 5.033 3.388a182 182 0 0 1 3.938 7.688l1.013 2.068a990 990 0 0 1 2.017 4.14c1.392 2.838 2.843 5.646 4.3 8.45C689 382 689 382 689 384h2l.813 2.063c2.865 7.087 6.083 13.892 9.595 20.68C704 411.795 704 411.795 704 414h2q2.415 4.745 4.813 9.5l1.369 2.688c1.983 3.937 3.881 7.8 5.33 11.968.998 2.81 2.221 5.14 3.851 7.637 3.2 4.909 5.459 10.172 7.824 15.52 3.655 8.111 7.474 16.058 11.686 23.893 4.239 7.917 8.247 15.945 12.252 23.981l1.005 2.017q2.401 4.819 4.8 9.639a6470 6470 0 0 0 5.71 11.44l2.118 4.234 1.11 2.221 5.772 11.542 2.466 4.932L812 627q-14.512.141-29.025.207c-4.493.021-8.986.05-13.479.095q-6.506.063-13.013.078-2.48.01-4.959.043c-2.32.03-4.638.033-6.958.031l-3.997.027c-5.863-.79-9.747-4.048-13.35-8.642-2.56-3.86-4.414-8.077-6.344-12.277l-2.898-6.18-1.488-3.194c-2.381-5.098-4.81-10.174-7.239-15.25l-1.378-2.902c-1.989-4.174-3.997-8.325-6.153-12.415l-1.02-1.95a467 467 0 0 0-2.652-4.929c-1.218-3.19-1.223-4.561-.047-7.742 1.39-1.86 1.39-1.86 3.25-3.75 4.109-4.46 7.977-9.067 11.75-13.812l1.782-2.146c2.733-3.48 4.595-6.094 4.734-10.608-.712-5.083-1.873-6.207-5.516-9.684-3.582-2.384-7.22-2.343-11.39-2.414l-2.136-.059c-2.241-.06-4.482-.106-6.724-.152l-4.57-.117q-5.59-.142-11.18-.258l-.946-2.168q-2.15-4.917-4.304-9.832l-1.488-3.41c-2.347-5.352-4.727-10.659-7.386-15.863-1.385-2.73-2.656-5.51-3.938-8.29-3.18-6.856-6.427-13.68-9.688-20.5l-1.43-2.992c-2.235-4.668-4.483-9.326-6.82-13.945a1022 1022 0 0 0-12.875 26.313c-4.068 8.619-8.409 17.062-12.89 25.472-1.8 3.38-3.54 6.782-5.235 10.215-4.2 8.401-8.625 16.688-13 25h106c-1.062 4.247-2.148 5.678-4.937 8.938a310 310 0 0 0-9.75 12.187l-2.432 3.081c-2.046 2.626-3.884 5.32-5.684 8.118-8.468 12.492-8.468 12.492-16.115 14.208-5.744.732-11.457.542-17.23.347q-3.165-.014-6.33-.006c-5.51-.006-11.013-.113-16.522-.242-5.637-.114-11.275-.131-16.914-.156A2071 2071 0 0 1 575 565l-1.022 2.052q-2.332 4.678-4.665 9.354l-1.608 3.228a905 905 0 0 1-12.74 24.52c-1.032 1.975-1.99 3.98-2.953 5.99-4.21 8.453-11.143 15.44-20.012 18.856-5.697 1.647-10.708 2.283-16.62 2.227h-2.485c-2.684 0-5.368-.016-8.051-.032l-5.616-.008q-7.358-.014-14.717-.05c-5.014-.02-10.028-.03-15.042-.04-9.823-.02-19.646-.055-29.469-.097 2.475-2.475 4.566-2.99 7.875-4.125 20.69-7.796 30.558-22.821 40.5-41.562l1.79-3.351q2.414-4.522 4.818-9.048 2.096-3.943 4.2-7.882a4823 4823 0 0 0 23.145-43.907c3.85-7.397 7.758-14.762 11.672-22.125h2l.343-2.176c.698-2.998 1.746-5.286 3.177-8.008l1.58-3.025 1.712-3.228 1.77-3.37c4.243-8.05 8.583-16.046 12.966-24.02 3.572-6.514 7.034-13.078 10.452-19.673a1031 1031 0 0 1 11.938-22.375c6.56-11.934 12.823-24.02 19.062-36.125h2l.73-1.687c1.543-2.81 3.43-4.94 5.582-7.313l2.301-2.562c8.349-8.526 17.684-11.074 29.418-10.934"/><path fill="#A7E54A" d="m1081 342 3.625.5c5.158 2.292 8.319 5.798 11.375 10.5 1.248 3.332 1.743 6.462 2 10l.207 2.2c.345 6.699-2.288 10.835-6.27 15.925-4.958 5.449-11.111 7.96-18.437 8.375-5.201-.294-10.123-1.662-14.5-4.5l-1.218-1.877c-2.567-3.853-4.511-5.838-9.115-6.87-4.24-.276-8.418-.31-12.663-.253q-2.34-.012-4.678-.033c-4.086-.028-8.17-.01-12.256.02-4.176.022-8.353-.002-12.529-.022-8.18-.033-16.36-.015-24.541.035l-.851 2.237c-1.03 2.475-2.163 4.672-3.532 6.97l-1.347 2.275-1.395 2.33-1.418 2.39Q971.732 395.102 970 398l2.249-.067q10.544-.303 21.093-.451a632 632 0 0 0 10.842-.236c3.495-.11 6.987-.169 10.484-.195 1.967-.027 3.933-.105 5.899-.184 7.145-.004 10.918.808 16.09 5.92A160 160 0 0 1 1041 408q1.9 2.192 3.813 4.375l1.675 1.96c1.578 1.826 1.578 1.826 4.012 3.665 2.177 1.741 3.76 3.366 5.559 5.469 4.421 5.09 8.89 10.114 13.504 15.031l2.439 2.781c3.707 3.89 6.3 6.405 11.685 7.401 3.58.071 6.802.025 10.313-.682 2.608-2.537 2.608-2.537 4-6 4.778-4.881 9.182-8.274 16.188-8.375 8.337.167 15.027 3.456 20.812 9.375 4.338 5.554 4.802 11.632 4.559 18.523-.933 5.804-3.258 9.523-7.559 13.477-5.635 3.887-11.774 7.075-18.777 6.516-7.083-1.644-12.542-5.12-17.164-10.672-1.287-2.241-1.672-4.304-2.059-6.844l-1.658.27c-7.297 1.023-15.335 2.149-21.892-1.81-5.495-4.528-9.983-9.946-14.45-15.46-5.241-6.233-10.886-11.976-16.687-17.687a2395 2395 0 0 1-5.012-4.95l-2.214-2.178C1030 420 1030 420 1028.282 417.405c-2.096-2.664-2.096-2.664-5.307-3.044l-3.58-.02-1.982-.032a394 394 0 0 0-6.46-.016q-2.244-.02-4.49-.046c-3.932-.04-7.864-.05-11.796-.054-4.016-.01-8.03-.047-12.046-.082-7.874-.064-15.747-.097-23.621-.111l-.434 1.873c-.645 2.422-1.638 4.188-2.937 6.33l-1.475 2.445-1.591 2.602-1.643 2.71a1307 1307 0 0 1-11.129 17.959c-3.339 5.316-6.573 10.691-9.791 16.081-3.592 6.014-7.213 12.004-10.937 17.938-.6.953-.6.953-1.21 1.927l-2.506 3.989c-7.777 12.393-15.407 24.859-22.82 37.472a843 843 0 0 1-10.437 17.276c-2.733 4.444-5.41 8.92-8.09 13.398-4.612 7.702-9.254 15.38-14 23l-1.937 3.129-1.875 2.996-1.645 2.633A29.6 29.6 0 0 1 850 593v-2h-2l-.848-2.226c-1.049-2.525-2.213-4.793-3.586-7.153-.478-.828-.956-1.657-1.45-2.51l-1.553-2.673a1017 1017 0 0 1-12.188-21.688c-4.589-8.406-9.387-16.672-14.285-24.9-1.728-2.933-3.41-5.89-5.09-8.85l-1.39 2.852-1.86 3.773-.91 1.871c-2.01 4.063-4.251 7.781-6.84 11.504-3.3-3.08-5.14-6.716-7.187-10.687l-1.207-2.311c-3.542-6.814-6.983-13.677-10.394-20.558-7.89-15.913-15.853-31.772-24.212-47.444-5.825-10.926-11.505-21.904-17-33-8.24-16.625-16.623-33.14-25.801-49.27-4.535-8.015-8.777-16.174-12.199-24.73h84v2l1.813.688c3.66 2.196 4.882 5.678 6.687 9.437 1.27 2.794 1.27 2.794 2.938 4.286 1.795 1.826 2.841 3.635 4.058 5.886l1.424 2.62 1.518 2.833 1.595 2.952c5.293 9.831 10.446 19.734 15.588 29.645 3.76 7.235 7.572 14.443 11.379 21.653l2.123 4.023q3.012 5.706 6.028 11.41l2.426 4.595q1.722 3.26 3.446 6.519l1.035 1.961a209 209 0 0 0 5.19 9.27C853 476 853 476 853 479h2l.664-1.93c1.869-4.295 4.282-8.196 6.711-12.195l1.613-2.674c4.08-6.734 8.27-13.394 12.499-20.035 4.24-6.68 8.314-13.455 12.367-20.25a508 508 0 0 1 9.185-14.838c2.8-4.396 5.533-8.832 8.274-13.265l1.707-2.75c2.62-4.225 5.224-8.456 7.761-12.731 9.91-16.562 9.91-16.562 18.219-19.332a86 86 0 0 1 4.84-.12l3.022-.004 3.31.01h3.49c3.814 0 7.629.009 11.443.016l7.924.005q9.372.004 18.742.021 10.67.016 21.337.022 21.945.016 43.892.05l.422-3.862c.505-4.612 1.923-6.584 5.363-9.658 7.16-4.785 15.005-5.018 23.215-3.48"/><path fill="#5F8F1E" d="M946 464q10.785-.037 21.57-.055 3.669-.008 7.339-.02c3.515-.013 7.03-.018 10.544-.023l3.318-.015h3.093l2.719-.007C997 464 997 464 1001 465v163h-71c-.282-33.913-.282-33.913-.342-48.162-.041-9.825-.09-19.65-.186-29.475q-.106-10.735-.13-21.47c-.01-3.787-.03-7.572-.082-11.358a656 656 0 0 1-.052-10.714c-.003-1.92-.04-3.839-.079-5.758.073-8.885 2.555-14.05 7.871-21.063q1.224-1.89 2.398-3.812a4205 4205 0 0 1 4-6.438c1.7-2.702 1.7-2.702 2.602-5.75"/><path fill="#9AD93A" d="m972.971 431.775 3.088.065 3.22-.02q3.362 0 6.724.062c3.422.055 6.835.02 10.257-.025q3.275.015 6.549.045l3.081-.04c6.94.206 6.94.206 10.074 2.703 1.798 2.07 3.404 4.232 5.036 6.435q1.92 2.05 3.916 4.03l2.06 2.06 2.145 2.129 2.257 2.252q3.526 3.517 7.06 7.029l4.818 4.805q5.868 5.85 11.744 11.695l3.356-.977c7.67-2.154 13.248-1.492 20.273 2.344 4.663 3.211 8.567 7.22 10.371 12.633.992 7.727-.638 13.57-5 20-3.938 4.402-8.42 6.707-14.27 7.371-7.585.142-13.012-.086-18.73-5.371-2.574-2.778-4.637-5.465-6-9 .107-2.25.235-4.5.375-6.75-.018-6.548-2.3-10.01-6.822-14.628-2.788-2.637-5.64-5.194-8.519-7.73-2.662-2.476-4.98-5.177-7.333-7.944-3.254-3.727-6.862-7.11-10.422-10.542-1.462-1.433-2.875-2.916-4.279-4.406v-2q-6.968.104-13.934.262-2.37.051-4.74.084a690 690 0 0 0-6.814.142l-2.14.02c-3.877.05-3.877.05-7.077 2.006L972 452c-1.993.34-1.993.34-4.23.293l-2.432-.03-2.526-.076-2.56-.04c-2.084-.036-4.168-.09-6.252-.147q1.051-2.224 2.125-4.438l1.195-2.496L959 442l1.088-2.227c3.39-6.114 5.906-7.815 12.883-7.998"/><path fill="#F7FFE2" d="M1078 354v2l2.375.813C1083 358 1083 358 1085 361c.69 4.491.243 7.291-2.375 10.938-2.693 2.814-4.747 3.65-8.625 3.937-3.878-.287-5.932-1.123-8.625-3.937-1.9-2.685-2.42-4.173-3.062-7.5.906-4.532 2.439-6.19 5.687-9.438 3.215-1.607 6.436-1.057 10-1"/><path fill="#FBFFE9" d="M1115.063 447.375c4.769 1.015 7.231 2.566 9.937 6.625.468 4.212.466 6.286-1.875 9.875-2.725 2.725-3.56 3.072-7.437 3.438-4.382-.372-5.848-.971-8.688-4.313-1.266-4.064-1.9-6.27.078-10.074 2.446-3.173 4-4.738 7.985-5.551"/><path fill="#FAFFEC" d="M1071 487c2.438 1.563 2.438 1.563 4 4 .554 2.78.582 5.224 0 8-2.573 3.344-4.627 4.817-8.812 5.375-3.188-.375-3.188-.375-6.063-2.437C1058 499 1058 499 1057.438 495.5c.643-4.005 1.721-5.66 4.562-8.5 3.185-1.593 5.602-.762 9 0"/><path fill="#557F1B" d="m457 623 2 1c-1.964 1.506-3.783 2.891-6 4l69 1v2h-82c2.581-2.581 5.083-3.296 8.5-4.562 4.315-1.569 4.315-1.569 8.5-3.438"/><path fill="#E8F4B1" d="m438 629 1.524.487c3.359.696 6.675.69 10.09.718l2.307.03q3.767.047 7.532.081l5.23.063q6.874.083 13.75.153 7.017.077 14.036.161 13.765.162 27.531.307v1h-83z"/><path fill="#ABDF4F" d="M946 464h51l1 2-1.827-.04c-6.277-.133-12.555-.224-18.833-.29q-3.515-.044-7.028-.123a734 734 0 0 0-10.105-.133c-1.046-.03-2.092-.062-3.17-.094-5.26-.136-5.26-.136-9.841 2.056-1.58 1.794-1.58 1.794-3.196 4.624 0-3 0-3 2-8"/><path fill="#B4EB5F" d="M965 433h49v1l-1.757.018q-9.053.098-18.104.244-3.378.051-6.757.084c-3.237.034-6.473.086-9.71.142l-3.053.02-2.85.06-2.504.033c-2.752.485-4.174 1.59-6.265 3.399z"/><path fill="#587F1F" d="m457 623 2 1c-1.964 1.506-3.783 2.891-6 4l3 2h-11v-2a753 753 0 0 1 5.875-2.562l3.305-1.442z"/><path fill="#6EA92A" d="M715 591c3.705 4.102 6.384 8.707 8 14l-1 3a1293 1293 0 0 1-3.5-6.812l-1.012-1.948c-1.49-2.935-2.488-4.901-2.488-8.24"/><path fill="#F1FFD0" d="m1068 355 3 1-1.277 1.355c-4.26 4.629-4.26 4.629-5.723 10.645h-1c-.603-6.025-.603-6.025 1.113-8.8 1.233-1.456 2.555-2.835 3.887-4.2"/><path fill="#ECF8BD" d="m438 629 1.563.438c3.122.72 6.263 1.135 9.437 1.562v1h-12z"/><path fill="#B8EB67" d="M946 464h5a707 707 0 0 1-2.875 3.438l-1.617 1.933C945 471 945 471 943 472l.938-2.312A111 111 0 0 0 946 464"/></svg>